<svg xmlns="http://www.w3.org/2000/svg" version="1.1" xmlns:xlink="http://www.w3.org/1999/xlink" xmlns:svgjs="http://svgjs.com/svgjs" width="92" height="57"><svg width="92" height="57" viewBox="0 0 92 57" fill="none" xmlns="http://www.w3.org/2000/svg">
<path d="M35.568 56V37.712H19.968V43.616H27.936C26.88 47.84 23.664 50.288 19.392 50.288C14.448 50.288 10.608 46.832 10.608 38.864C10.608 30.944 14.448 27.488 19.392 27.488C23.28 27.488 25.776 29.6 27.072 32.768L35.28 31.808C33.264 25.472 27.552 21.008 19.392 21.008C9.456 21.008 2.304 27.68 2.304 38.864C2.304 50.048 9.456 56.768 19.392 56.768C23.952 56.768 27.504 55.136 30 52.064V56H35.568ZM50.0123 28.112H67.4363V21.728H41.8523V56H50.0123V42.368H66.5243V36.272H50.0123V28.112Z" fill="black"></path>
<path d="M78.54 12.14V13.48H79.8C81.7 13.48 83.08 14.38 83.08 16.16C83.08 17.86 81.7 18.86 79.92 18.86C78.14 18.86 76.9 17.82 76.62 15.84L74.88 16.02C75.28 18.86 77.24 20.28 79.92 20.28C82.62 20.28 84.86 18.92 84.86 16.16C84.86 14.4 83.76 13.22 82.28 12.74V12.66C83.5 12.14 84.4 11.08 84.4 9.64C84.4 7.1 82.38 5.72 79.92 5.72C77.48 5.72 75.74 7.12 75.4 9.62L77.1 9.8C77.34 8.04 78.42 7.16 79.92 7.16C81.42 7.16 82.66 8.06 82.66 9.64C82.66 11.22 81.42 12.14 79.82 12.14H78.54Z" fill="black"></path>
</svg><style>@media (prefers-color-scheme: light) { :root { filter: none; } }
</style></svg>