<svg width="86" height="54" viewBox="0 0 86 54" fill="none" xmlns="http://www.w3.org/2000/svg">
<path d="M34.5677 52.5H35.0677V52V33.712V33.212H34.5677H18.9677H18.4677V33.712V39.616V40.116H18.9677H26.2749C25.7299 41.8345 24.7908 43.1889 23.5633 44.1409C22.1911 45.2051 20.4303 45.788 18.3917 45.788C16.0425 45.788 13.9954 44.9714 12.527 43.2405C11.0501 41.4997 10.1077 38.7738 10.1077 34.864C10.1077 30.9789 11.0498 28.265 12.5265 26.5301C13.995 24.8047 16.0423 23.988 18.3917 23.988C20.2405 23.988 21.7313 24.4884 22.9099 25.3445C24.0919 26.2032 24.9886 27.4408 25.6089 28.9573L25.7527 29.3087L26.1298 29.2646L34.3378 28.3046L34.94 28.2342L34.7562 27.6564C32.6701 21.1003 26.7559 16.508 18.3917 16.508C13.3097 16.508 8.90299 18.2164 5.76608 21.3905C2.62875 24.5651 0.803711 29.1631 0.803711 34.864C0.803711 40.5648 2.62866 45.1743 5.76539 48.3608C8.9019 51.5469 13.3087 53.268 18.3917 53.268C22.5739 53.268 25.969 51.9283 28.4997 49.3703V52V52.5H28.9997H34.5677ZM65.524 31.772H49.512V24.612H66.436H66.936V24.112V17.728V17.228H66.436H40.852H40.352V17.728V52V52.5H40.852H49.012H49.512V52V38.868H65.524H66.024V38.368V32.272V31.772H65.524ZM77.8397 7.21999H77.3397V7.71999V9.93999V10.44H77.8397H79.0997C79.7504 10.44 80.2034 10.5791 80.4841 10.7987C80.7439 11.0021 80.9197 11.3242 80.9197 11.86C80.9197 12.3507 80.7461 12.6996 80.4853 12.931C80.2175 13.1687 79.814 13.32 79.2997 13.32C78.7599 13.32 78.342 13.1958 78.0484 12.9464C77.7617 12.7029 77.5205 12.2776 77.458 11.519L77.4178 11.0309L76.9291 11.0609L73.6691 11.2609L73.1598 11.2922L73.2014 11.8007C73.3412 13.5113 74.0237 14.7821 75.1354 15.613C76.2313 16.4322 77.6857 16.78 79.2997 16.78C80.9027 16.78 82.3734 16.4666 83.4556 15.6824C84.5646 14.8787 85.1997 13.6284 85.1997 11.92C85.1997 10.9046 84.8958 10.0832 84.3737 9.45722C84.0853 9.11155 83.7391 8.83565 83.3589 8.62085C84.2537 8.02144 84.8997 7.07005 84.8997 5.77999C84.8997 4.33074 84.3122 3.17108 83.2856 2.38753C82.2751 1.61633 80.8817 1.23999 79.2997 1.23999C77.716 1.23999 76.3446 1.61719 75.3353 2.41221C74.3144 3.21637 73.7187 4.4054 73.6208 5.90745L73.5882 6.40735L74.0881 6.43899L77.2481 6.63899L77.7271 6.66931L77.777 6.19195C77.8372 5.61544 78.0362 5.24987 78.2809 5.02758C78.5262 4.80478 78.8678 4.67999 79.2997 4.67999C79.74 4.67999 80.0896 4.81399 80.3224 5.02104C80.5486 5.2223 80.6997 5.52286 80.6997 5.93999C80.6997 6.34392 80.5513 6.6456 80.306 6.85389C80.0525 7.06922 79.6521 7.21999 79.0997 7.21999H77.8397Z" stroke="#E1C597"/>
</svg>
