<svg width="22" height="22" viewBox="0 0 22 22" fill="none" xmlns="http://www.w3.org/2000/svg">
<path d="M4.92372 2.71186C4.92372 3.93344 3.93344 4.92372 2.71186 4.92372C1.49028 4.92372 0.5 3.93344 0.5 2.71186C0.5 1.49028 1.49028 0.5 2.71186 0.5C3.93344 0.5 4.92372 1.49028 4.92372 2.71186Z" stroke="black"/>
<path d="M4.92372 10.8475C4.92372 12.0691 3.93344 13.0593 2.71186 13.0593C1.49028 13.0593 0.5 12.0691 0.5 10.8475C0.5 9.62584 1.49028 8.63559 2.71186 8.63559C3.93344 8.63559 4.92372 9.62584 4.92372 10.8475Z" stroke="black"/>
<path d="M4.92372 18.983C4.92372 20.2047 3.93344 21.1949 2.71186 21.1949C1.49028 21.1949 0.5 20.2047 0.5 18.983C0.5 17.7614 1.49028 16.7712 2.71186 16.7712C3.93344 16.7712 4.92372 17.7614 4.92372 18.983Z" stroke="black"/>
<path d="M13.0592 2.71186C13.0592 3.93344 12.069 4.92372 10.8474 4.92372C9.62575 4.92372 8.6355 3.93344 8.6355 2.71186C8.6355 1.49028 9.62575 0.5 10.8474 0.5C12.069 0.5 13.0592 1.49028 13.0592 2.71186Z" stroke="black"/>
<path d="M13.0592 10.8475C13.0592 12.0691 12.069 13.0593 10.8474 13.0593C9.62574 13.0593 8.6355 12.0691 8.6355 10.8475C8.6355 9.62583 9.62574 8.63559 10.8474 8.63559C12.069 8.63559 13.0592 9.62583 13.0592 10.8475Z" stroke="black"/>
<path d="M13.0592 18.983C13.0592 20.2047 12.069 21.1949 10.8474 21.1949C9.62574 21.1949 8.6355 20.2047 8.6355 18.983C8.6355 17.7614 9.62574 16.7712 10.8474 16.7712C12.069 16.7712 13.0592 17.7614 13.0592 18.983Z" stroke="black"/>
<path d="M21.195 2.71186C21.195 3.93344 20.2047 4.92372 18.9831 4.92372C17.7615 4.92372 16.7712 3.93344 16.7712 2.71186C16.7712 1.49028 17.7615 0.5 18.9831 0.5C20.2047 0.5 21.195 1.49028 21.195 2.71186Z" stroke="black"/>
<path d="M21.195 10.8475C21.195 12.0691 20.2047 13.0593 18.9831 13.0593C17.7615 13.0593 16.7712 12.0691 16.7712 10.8475C16.7712 9.62583 17.7615 8.63559 18.9831 8.63559C20.2047 8.63559 21.195 9.62583 21.195 10.8475Z" stroke="black"/>
<path d="M21.195 18.983C21.195 20.2047 20.2047 21.1949 18.9831 21.1949C17.7615 21.1949 16.7712 20.2047 16.7712 18.983C16.7712 17.7614 17.7615 16.7712 18.9831 16.7712C20.2047 16.7712 21.195 17.7614 21.195 18.983Z" stroke="black"/>
</svg>
