<svg width="22" height="22" viewBox="0 0 22 22" fill="none" xmlns="http://www.w3.org/2000/svg">
<path d="M5.42372 2.71186C5.42372 4.20958 4.20958 5.42372 2.71186 5.42372C1.21414 5.42372 0 4.20958 0 2.71186C0 1.21414 1.21414 0 2.71186 0C4.20958 0 5.42372 1.21414 5.42372 2.71186Z" fill="white" fill-opacity="0.7"/>
<path d="M5.42372 10.8474C5.42372 12.3452 4.20958 13.5593 2.71186 13.5593C1.21414 13.5593 0 12.3452 0 10.8474C0 9.34966 1.21414 8.13556 2.71186 8.13556C4.20958 8.13556 5.42372 9.34966 5.42372 10.8474Z" fill="white" fill-opacity="0.7"/>
<path d="M2.71186 21.6949C4.20958 21.6949 5.42372 20.4808 5.42372 18.983C5.42372 17.4853 4.20958 16.2712 2.71186 16.2712C1.21414 16.2712 0 17.4853 0 18.983C0 20.4808 1.21414 21.6949 2.71186 21.6949Z" fill="white" fill-opacity="0.7"/>
<path d="M13.5593 2.71186C13.5593 4.20958 12.3452 5.42372 10.8475 5.42372C9.34972 5.42372 8.13562 4.20958 8.13562 2.71186C8.13562 1.21414 9.34972 0 10.8475 0C12.3452 0 13.5593 1.21414 13.5593 2.71186Z" fill="white" fill-opacity="0.7"/>
<path d="M10.8475 13.5593C12.3452 13.5593 13.5593 12.3452 13.5593 10.8474C13.5593 9.34966 12.3452 8.13556 10.8475 8.13556C9.34972 8.13556 8.13562 9.34966 8.13562 10.8474C8.13562 12.3452 9.34972 13.5593 10.8475 13.5593Z" fill="white" fill-opacity="0.7"/>
<path d="M13.5593 18.983C13.5593 20.4808 12.3452 21.6949 10.8475 21.6949C9.34972 21.6949 8.13562 20.4808 8.13562 18.983C8.13562 17.4853 9.34972 16.2712 10.8475 16.2712C12.3452 16.2712 13.5593 17.4853 13.5593 18.983Z" fill="white" fill-opacity="0.7"/>
<path d="M18.983 5.42372C20.4807 5.42372 21.6948 4.20958 21.6948 2.71186C21.6948 1.21414 20.4807 0 18.983 0C17.4852 0 16.2711 1.21414 16.2711 2.71186C16.2711 4.20958 17.4852 5.42372 18.983 5.42372Z" fill="white" fill-opacity="0.7"/>
<path d="M21.6948 10.8474C21.6948 12.3452 20.4807 13.5593 18.983 13.5593C17.4852 13.5593 16.2711 12.3452 16.2711 10.8474C16.2711 9.34966 17.4852 8.13556 18.983 8.13556C20.4807 8.13556 21.6948 9.34966 21.6948 10.8474Z" fill="white" fill-opacity="0.7"/>
<path d="M18.983 21.6949C20.4807 21.6949 21.6948 20.4808 21.6948 18.983C21.6948 17.4853 20.4807 16.2712 18.983 16.2712C17.4852 16.2712 16.2711 17.4853 16.2711 18.983C16.2711 20.4808 17.4852 21.6949 18.983 21.6949Z" fill="white" fill-opacity="0.7"/>
</svg>
