<svg width="22" height="22" viewBox="0 0 22 22" fill="none" xmlns="http://www.w3.org/2000/svg">
<path d="M4.92372 2.71186C4.92372 3.93344 3.93344 4.92372 2.71186 4.92372C1.49028 4.92372 0.5 3.93344 0.5 2.71186C0.5 1.49028 1.49028 0.5 2.71186 0.5C3.93344 0.5 4.92372 1.49028 4.92372 2.71186Z" stroke="white"/>
<path d="M4.92372 10.8475C4.92372 12.0691 3.93344 13.0593 2.71186 13.0593C1.49028 13.0593 0.5 12.0691 0.5 10.8475C0.5 9.62584 1.49028 8.63559 2.71186 8.63559C3.93344 8.63559 4.92372 9.62584 4.92372 10.8475Z" stroke="white"/>
<path d="M4.92372 18.983C4.92372 20.2046 3.93344 21.1949 2.71186 21.1949C1.49028 21.1949 0.5 20.2046 0.5 18.983C0.5 17.7614 1.49028 16.7712 2.71186 16.7712C3.93344 16.7712 4.92372 17.7614 4.92372 18.983Z" stroke="white"/>
<path d="M13.0595 2.71186C13.0595 3.93344 12.0692 4.92372 10.8476 4.92372C9.62599 4.92372 8.63574 3.93344 8.63574 2.71186C8.63574 1.49028 9.62599 0.5 10.8476 0.5C12.0692 0.5 13.0595 1.49028 13.0595 2.71186Z" stroke="white"/>
<path d="M13.0595 10.8475C13.0595 12.0691 12.0692 13.0593 10.8476 13.0593C9.62598 13.0593 8.63574 12.0691 8.63574 10.8475C8.63574 9.62583 9.62598 8.63559 10.8476 8.63559C12.0692 8.63559 13.0595 9.62583 13.0595 10.8475Z" stroke="white"/>
<path d="M13.0595 18.983C13.0595 20.2046 12.0692 21.1949 10.8476 21.1949C9.62598 21.1949 8.63574 20.2046 8.63574 18.983C8.63574 17.7614 9.62598 16.7712 10.8476 16.7712C12.0692 16.7712 13.0595 17.7614 13.0595 18.983Z" stroke="white"/>
<path d="M21.1952 2.71186C21.1952 3.93344 20.205 4.92372 18.9833 4.92372C17.7617 4.92372 16.7715 3.93344 16.7715 2.71186C16.7715 1.49028 17.7617 0.5 18.9833 0.5C20.205 0.5 21.1952 1.49028 21.1952 2.71186Z" stroke="white"/>
<path d="M21.1952 10.8475C21.1952 12.0691 20.205 13.0593 18.9833 13.0593C17.7617 13.0593 16.7715 12.0691 16.7715 10.8475C16.7715 9.62583 17.7617 8.63559 18.9833 8.63559C20.205 8.63559 21.1952 9.62583 21.1952 10.8475Z" stroke="white"/>
<path d="M21.1952 18.983C21.1952 20.2046 20.205 21.1949 18.9833 21.1949C17.7617 21.1949 16.7715 20.2046 16.7715 18.983C16.7715 17.7614 17.7617 16.7712 18.9833 16.7712C20.205 16.7712 21.1952 17.7614 21.1952 18.983Z" stroke="white"/>
</svg>
