<svg width="22" height="22" viewBox="0 0 22 22" fill="none" xmlns="http://www.w3.org/2000/svg">
<path d="M5.42372 2.71186C5.42372 4.20958 4.20958 5.42372 2.71186 5.42372C1.21414 5.42372 0 4.20958 0 2.71186C0 1.21414 1.21414 0 2.71186 0C4.20958 0 5.42372 1.21414 5.42372 2.71186Z" fill="white"/>
<path d="M5.42372 10.8475C5.42372 12.3452 4.20958 13.5593 2.71186 13.5593C1.21414 13.5593 0 12.3452 0 10.8475C0 9.34969 1.21414 8.13559 2.71186 8.13559C4.20958 8.13559 5.42372 9.34969 5.42372 10.8475Z" fill="white"/>
<path d="M2.71186 21.6949C4.20958 21.6949 5.42372 20.4808 5.42372 18.983C5.42372 17.4853 4.20958 16.2712 2.71186 16.2712C1.21414 16.2712 0 17.4853 0 18.983C0 20.4808 1.21414 21.6949 2.71186 21.6949Z" fill="white"/>
<path d="M13.5595 2.71186C13.5595 4.20958 12.3454 5.42372 10.8476 5.42372C9.34984 5.42372 8.13574 4.20958 8.13574 2.71186C8.13574 1.21414 9.34984 0 10.8476 0C12.3454 0 13.5595 1.21414 13.5595 2.71186Z" fill="white"/>
<path d="M10.8476 13.5593C12.3454 13.5593 13.5595 12.3452 13.5595 10.8475C13.5595 9.34969 12.3454 8.13559 10.8476 8.13559C9.34984 8.13559 8.13574 9.34969 8.13574 10.8475C8.13574 12.3452 9.34984 13.5593 10.8476 13.5593Z" fill="white"/>
<path d="M13.5595 18.983C13.5595 20.4808 12.3454 21.6949 10.8476 21.6949C9.34984 21.6949 8.13574 20.4808 8.13574 18.983C8.13574 17.4853 9.34984 16.2712 10.8476 16.2712C12.3454 16.2712 13.5595 17.4853 13.5595 18.983Z" fill="white"/>
<path d="M18.9833 5.42372C20.4811 5.42372 21.6952 4.20958 21.6952 2.71186C21.6952 1.21414 20.4811 0 18.9833 0C17.4856 0 16.2715 1.21414 16.2715 2.71186C16.2715 4.20958 17.4856 5.42372 18.9833 5.42372Z" fill="white"/>
<path d="M21.6952 10.8475C21.6952 12.3452 20.4811 13.5593 18.9833 13.5593C17.4856 13.5593 16.2715 12.3452 16.2715 10.8475C16.2715 9.34969 17.4856 8.13559 18.9833 8.13559C20.4811 8.13559 21.6952 9.34969 21.6952 10.8475Z" fill="white"/>
<path d="M18.9833 21.6949C20.4811 21.6949 21.6952 20.4808 21.6952 18.983C21.6952 17.4853 20.4811 16.2712 18.9833 16.2712C17.4856 16.2712 16.2715 17.4853 16.2715 18.983C16.2715 20.4808 17.4856 21.6949 18.9833 21.6949Z" fill="white"/>
</svg>
