<svg width="92" height="57" viewBox="0 0 92 57" fill="none" xmlns="http://www.w3.org/2000/svg">
<path d="M35.568 56V37.712H19.968V43.616H27.936C26.88 47.84 23.664 50.288 19.392 50.288C14.448 50.288 10.608 46.832 10.608 38.864C10.608 30.944 14.448 27.488 19.392 27.488C23.28 27.488 25.776 29.6 27.072 32.768L35.28 31.808C33.264 25.472 27.552 21.008 19.392 21.008C9.456 21.008 2.304 27.68 2.304 38.864C2.304 50.048 9.456 56.768 19.392 56.768C23.952 56.768 27.504 55.136 30 52.064V56H35.568ZM50.0123 28.112H67.4363V21.728H41.8523V56H50.0123V42.368H66.5243V36.272H50.0123V28.112Z" fill="#E1C597"/>
<path d="M78.54 12.14V13.48H79.8C81.7 13.48 83.08 14.38 83.08 16.16C83.08 17.86 81.7 18.86 79.92 18.86C78.14 18.86 76.9 17.82 76.62 15.84L74.88 16.02C75.28 18.86 77.24 20.28 79.92 20.28C82.62 20.28 84.86 18.92 84.86 16.16C84.86 14.4 83.76 13.22 82.28 12.74V12.66C83.5 12.14 84.4 11.08 84.4 9.64C84.4 7.1 82.38 5.72 79.92 5.72C77.48 5.72 75.74 7.12 75.4 9.62L77.1 9.8C77.34 8.04 78.42 7.16 79.92 7.16C81.42 7.16 82.66 8.06 82.66 9.64C82.66 11.22 81.42 12.14 79.82 12.14H78.54Z" fill="#E1C597"/>
<path d="M78.54 12.14V11.14H77.54V12.14H78.54ZM78.54 13.48H77.54V14.48H78.54V13.48ZM76.62 15.84L77.6101 15.7L77.4753 14.7462L76.5171 14.8453L76.62 15.84ZM74.88 16.02L74.7771 15.0253L73.7451 15.1321L73.8898 16.1595L74.88 16.02ZM82.28 12.74H81.28V13.467L81.9715 13.6912L82.28 12.74ZM82.28 12.66L81.8879 11.7401L81.28 11.9992V12.66H82.28ZM75.4 9.62L74.4091 9.48524L74.2703 10.506L75.2947 10.6144L75.4 9.62ZM77.1 9.8L76.9947 10.7944L77.9597 10.8966L78.0908 9.93511L77.1 9.8ZM77.54 12.14V13.48H79.54V12.14H77.54ZM78.54 14.48H79.8V12.48H78.54V14.48ZM79.8 14.48C80.6082 14.48 81.189 14.6733 81.5433 14.9455C81.8629 15.1911 82.08 15.5593 82.08 16.16H84.08C84.08 14.9807 83.6071 14.0089 82.7617 13.3595C81.951 12.7367 80.8918 12.48 79.8 12.48V14.48ZM82.08 16.16C82.08 16.7127 81.8677 17.1018 81.5358 17.3723C81.1832 17.6596 80.6318 17.86 79.92 17.86V19.86C80.9882 19.86 82.0168 19.5604 82.7992 18.9227C83.6023 18.2682 84.08 17.3073 84.08 16.16H82.08ZM79.92 17.86C79.2292 17.86 78.7262 17.6619 78.3741 17.3471C78.0195 17.03 77.7248 16.5107 77.6101 15.7L75.6299 15.98C75.7952 17.1493 76.2605 18.14 77.0409 18.8379C77.8238 19.5381 78.8308 19.86 79.92 19.86V17.86ZM76.5171 14.8453L74.7771 15.0253L74.9829 17.0147L76.7229 16.8347L76.5171 14.8453ZM73.8898 16.1595C74.1193 17.789 74.814 19.0982 75.9149 19.9915C77.007 20.8777 78.4062 21.28 79.92 21.28V19.28C78.7538 19.28 77.833 18.9723 77.1751 18.4385C76.526 17.9118 76.0407 17.091 75.8702 15.8805L73.8898 16.1595ZM79.92 21.28C81.4228 21.28 82.8911 20.9033 84.0092 20.0499C85.1599 19.1717 85.86 17.845 85.86 16.16H83.86C83.86 17.235 83.4401 17.9683 82.7958 18.4601C82.1189 18.9767 81.1172 19.28 79.92 19.28V21.28ZM85.86 16.16C85.86 13.8929 84.4061 12.3783 82.5885 11.7888L81.9715 13.6912C83.1139 14.0617 83.86 14.9071 83.86 16.16H85.86ZM83.28 12.74V12.66H81.28V12.74H83.28ZM82.6721 13.5799C84.1793 12.9375 85.4 11.5624 85.4 9.64H83.4C83.4 10.5976 82.8207 11.3425 81.8879 11.7401L82.6721 13.5799ZM85.4 9.64C85.4 8.07761 84.7661 6.80997 83.7144 5.95248C82.6859 5.11381 81.3266 4.72 79.92 4.72V6.72C80.9734 6.72 81.8541 7.01619 82.4506 7.50252C83.0239 7.97003 83.4 8.66238 83.4 9.64H85.4ZM79.92 4.72C78.5075 4.72 77.2205 5.1276 76.2263 5.9693C75.2284 6.8142 74.6074 8.02758 74.4091 9.48524L76.3909 9.75476C76.5326 8.71242 76.9516 7.9758 77.5187 7.4957C78.0895 7.0124 78.8925 6.72 79.92 6.72V4.72ZM75.2947 10.6144L76.9947 10.7944L77.2053 8.80556L75.5053 8.62556L75.2947 10.6144ZM78.0908 9.93511C78.1867 9.23216 78.4337 8.80953 78.7075 8.56235C78.9787 8.31761 79.3698 8.16 79.92 8.16V6.16C78.9702 6.16 78.0713 6.44239 77.3675 7.07765C76.6663 7.71047 76.2533 8.60784 76.1092 9.66489L78.0908 9.93511ZM79.92 8.16C80.4776 8.16 80.9199 8.32741 81.2052 8.56972C81.4725 8.79672 81.66 9.13492 81.66 9.64H83.66C83.66 8.56508 83.2275 7.66328 82.4998 7.04528C81.7901 6.44259 80.8624 6.16 79.92 6.16V8.16ZM81.66 9.64C81.66 10.1448 81.4729 10.4853 81.1976 10.7161C80.9034 10.9628 80.4363 11.14 79.82 11.14V13.14C80.8037 13.14 81.7566 12.8572 82.4824 12.2489C83.2271 11.6247 83.66 10.7152 83.66 9.64H81.66ZM79.82 11.14H78.54V13.14H79.82V11.14Z" fill="#E1C597"/>
</svg>
